<?xml version="1.0" encoding="UTF-8"?>
<svg width="700pt" height="700pt" version="1.1" viewBox="0 0 700 700" xmlns="http://www.w3.org/2000/svg" xmlns:xlink="http://www.w3.org/1999/xlink">
 <defs>
  <symbol id="u" overflow="visible">
   <path d="m0.25-0.015625c-0.011719 0.011719-0.027344 0.015625-0.046875 0.015625h-0.03125c-0.054687 0-0.09375-0.0078125-0.125-0.03125-0.023438-0.03125-0.03125-0.066406-0.03125-0.10938 0-0.039063 0.0078125-0.070313 0.03125-0.09375 0.03125-0.03125 0.070313-0.046875 0.125-0.046875 0.007813 0 0.019531 0.007812 0.03125 0.015625h0.046875v0.0625c-0.011719-0.007813-0.023438-0.015625-0.03125-0.015625-0.011719-0.007812-0.027344-0.015625-0.046875-0.015625-0.023437 0-0.042969 0.011719-0.0625 0.03125-0.011719 0.011719-0.015625 0.03125-0.015625 0.0625s0.0039062 0.058594 0.015625 0.078125c0.019531 0.011719 0.039063 0.015625 0.0625 0.015625h0.046875c0.007812-0.0078125 0.019531-0.019531 0.03125-0.03125z"/>
  </symbol>
  <symbol id="d" overflow="visible">
   <path d="m0.1875-0.14062c-0.011719-0.007813-0.023438-0.015625-0.03125-0.015625-0.023438 0-0.039062 0.007812-0.046875 0.015625-0.011719 0.011719-0.015625 0.027344-0.015625 0.046875v0.09375h-0.0625v-0.20312h0.0625v0.03125c0.007812-0.019531 0.019531-0.03125 0.03125-0.03125 0.007812-0.007813 0.023438-0.015625 0.046875-0.015625h0.015625z"/>
  </symbol>
  <symbol id="c" overflow="visible">
   <path d="m0.23438-0.10938v0.03125h-0.15625c0.0078125 0.011719 0.015625 0.023438 0.015625 0.03125h0.046875 0.03125c0.019531 0 0.039063-0.0039062 0.0625-0.015625v0.046875c-0.023437 0.011719-0.042969 0.015625-0.0625 0.015625h-0.03125c-0.042969 0-0.074219-0.0039062-0.09375-0.015625-0.023438-0.019531-0.03125-0.046875-0.03125-0.078125 0-0.039062 0.0078125-0.070312 0.03125-0.09375 0.019531-0.019531 0.046875-0.03125 0.078125-0.03125s0.054688 0.011719 0.078125 0.03125c0.019531 0.023438 0.03125 0.046875 0.03125 0.078125zm-0.0625-0.015625c0-0.007812-0.007813-0.019531-0.015625-0.03125-0.011719-0.007812-0.023438-0.015625-0.03125-0.015625-0.011719 0-0.023438 0.007813-0.03125 0.015625 0 0.011719-0.0078125 0.023438-0.015625 0.03125z"/>
  </symbol>
  <symbol id="a" overflow="visible">
   <path d="m0.125-0.09375c-0.011719 0-0.023438 0.0078125-0.03125 0.015625-0.011719 0-0.015625 0.0078125-0.015625 0.015625v0.015625h0.03125 0.03125c0.007813-0.0078125 0.015625-0.019531 0.015625-0.03125v-0.015625zm0.09375-0.03125v0.125h-0.0625v-0.03125c-0.011719 0.011719-0.023438 0.023438-0.03125 0.03125h-0.03125c-0.023438 0-0.042969-0.0039062-0.0625-0.015625-0.011719-0.0078125-0.015625-0.023438-0.015625-0.046875 0-0.019531 0.0039062-0.035156 0.015625-0.046875 0.019531-0.007813 0.050781-0.015625 0.09375-0.015625h0.03125v-0.015625c0-0.007813-0.007812-0.015625-0.015625-0.015625 0-0.007812-0.011719-0.015625-0.03125-0.015625-0.011719 0-0.027344 0.007813-0.046875 0.015625h-0.03125v-0.046875h0.03125c0.019531-0.007813 0.039062-0.015625 0.0625-0.015625 0.03125 0 0.050781 0.011719 0.0625 0.03125 0.019531 0.011719 0.03125 0.03125 0.03125 0.0625z"/>
  </symbol>
  <symbol id="b" overflow="visible">
   <path d="m0.10938-0.26562v0.0625h0.0625v0.046875h-0.0625v0.078125 0.03125h0.015625 0.046875v0.046875h-0.0625c-0.023438 0-0.042969-0.0039062-0.0625-0.015625-0.011719-0.0078125-0.015625-0.03125-0.015625-0.0625v-0.078125h-0.03125v-0.046875h0.03125v-0.0625z"/>
  </symbol>
  <symbol id="l" overflow="visible">
   <path d="m0.17188-0.17188v-0.125h0.0625v0.29688h-0.0625v-0.03125c-0.011719 0.011719-0.023437 0.023438-0.03125 0.03125h-0.03125c-0.03125 0-0.058594-0.0039062-0.078125-0.015625-0.011719-0.019531-0.015625-0.046875-0.015625-0.078125 0-0.039062 0.0039062-0.070312 0.015625-0.09375 0.019531-0.019531 0.046875-0.03125 0.078125-0.03125 0.007813 0 0.019531 0.007812 0.03125 0.015625 0.007813 0 0.019531 0.011719 0.03125 0.03125zm-0.046875 0.125c0.007812 0 0.019531-0.0039062 0.03125-0.015625 0.007812-0.0078125 0.015625-0.019531 0.015625-0.03125 0-0.019531-0.007813-0.035156-0.015625-0.046875-0.011719-0.019531-0.023438-0.03125-0.03125-0.03125-0.011719 0-0.023438 0.011719-0.03125 0.03125-0.011719 0.011719-0.015625 0.027344-0.015625 0.046875 0 0.011719 0.0039062 0.023438 0.015625 0.03125 0.007812 0.011719 0.019531 0.015625 0.03125 0.015625z"/>
  </symbol>
  <symbol id="k" overflow="visible">
   <path d="m0.14062-0.046875c0.019531 0 0.03125-0.0039062 0.03125-0.015625 0.007813-0.0078125 0.015625-0.019531 0.015625-0.03125 0-0.019531-0.007812-0.035156-0.015625-0.046875 0-0.019531-0.011719-0.03125-0.03125-0.03125-0.011719 0-0.023437 0.011719-0.03125 0.03125-0.011719 0.011719-0.015625 0.027344-0.015625 0.046875 0 0.011719 0.0039062 0.023438 0.015625 0.03125 0.007813 0.011719 0.019531 0.015625 0.03125 0.015625zm-0.046875-0.125c0.007812-0.019531 0.019531-0.03125 0.03125-0.03125 0.007812-0.007813 0.023438-0.015625 0.046875-0.015625 0.019531 0 0.035156 0.011719 0.046875 0.03125 0.019531 0.023438 0.03125 0.054688 0.03125 0.09375 0 0.03125-0.011719 0.058594-0.03125 0.078125-0.011719 0.011719-0.027344 0.015625-0.046875 0.015625h-0.046875c-0.011719-0.0078125-0.023438-0.019531-0.03125-0.03125v0.03125h-0.0625v-0.29688h0.0625z"/>
  </symbol>
  <symbol id="j" overflow="visible">
   <path d="m0-0.20312h0.078125l0.046875 0.14062 0.046875-0.14062h0.078125l-0.09375 0.21875c-0.011719 0.019531-0.023438 0.035156-0.03125 0.046875-0.011719 0.0078125-0.027344 0.015625-0.046875 0.015625h-0.046875v-0.046875h0.03125 0.015625c0.0078125 0 0.015625-0.0078125 0.015625-0.015625v-0.015625z"/>
  </symbol>
  <symbol id="g" overflow="visible">
   <path d="m0.03125-0.20312h0.0625v0.20312c0 0.019531-0.0078125 0.035156-0.015625 0.046875-0.011719 0.019531-0.03125 0.03125-0.0625 0.03125h-0.03125v-0.046875h0.015625 0.015625c0.0078125 0 0.015625-0.011719 0.015625-0.03125zm0-0.09375h0.0625v0.0625h-0.0625z"/>
  </symbol>
  <symbol id="i" overflow="visible">
   <path d="m0.25-0.125v0.125h-0.078125v-0.09375-0.03125-0.015625c0-0.007813-0.007813-0.015625-0.015625-0.015625h-0.015625c-0.011719 0-0.023437 0.007812-0.03125 0.015625-0.011719 0.011719-0.015625 0.027344-0.015625 0.046875v0.09375h-0.0625v-0.29688h0.0625v0.125c0.007812-0.019531 0.019531-0.03125 0.03125-0.03125 0.007812-0.007813 0.023438-0.015625 0.046875-0.015625 0.019531 0 0.035156 0.011719 0.046875 0.03125 0.019531 0.011719 0.03125 0.03125 0.03125 0.0625z"/>
  </symbol>
  <symbol id="t" overflow="visible">
   <path d="m0.03125-0.20312h0.0625v0.20312h-0.0625zm0-0.09375h0.0625v0.0625h-0.0625z"/>
  </symbol>
  <symbol id="h" overflow="visible">
   <path d="m0.25-0.125v0.125h-0.078125v-0.09375-0.03125-0.015625c0-0.007813-0.007813-0.015625-0.015625-0.015625h-0.015625c-0.011719 0-0.023437 0.007812-0.03125 0.015625-0.011719 0.011719-0.015625 0.027344-0.015625 0.046875v0.09375h-0.0625v-0.20312h0.0625v0.03125c0.007812-0.019531 0.019531-0.03125 0.03125-0.03125 0.007812-0.007813 0.023438-0.015625 0.046875-0.015625 0.019531 0 0.035156 0.011719 0.046875 0.03125 0.019531 0.011719 0.03125 0.03125 0.03125 0.0625z"/>
  </symbol>
  <symbol id="f" overflow="visible">
   <path d="m0.09375-0.03125v0.10938h-0.0625v-0.28125h0.0625v0.03125c0.007812-0.019531 0.019531-0.03125 0.03125-0.03125 0.007812-0.007813 0.023438-0.015625 0.046875-0.015625 0.019531 0 0.035156 0.011719 0.046875 0.03125 0.019531 0.023438 0.03125 0.054688 0.03125 0.09375 0 0.03125-0.011719 0.058594-0.03125 0.078125-0.011719 0.011719-0.027344 0.015625-0.046875 0.015625h-0.046875c-0.011719-0.0078125-0.023438-0.019531-0.03125-0.03125zm0.046875-0.14062c-0.011719 0-0.023437 0.011719-0.03125 0.03125-0.011719 0.011719-0.015625 0.027344-0.015625 0.046875 0 0.011719 0.0039062 0.023438 0.015625 0.03125 0.007813 0.011719 0.019531 0.015625 0.03125 0.015625 0.019531 0 0.03125-0.0039062 0.03125-0.015625 0.007813-0.0078125 0.015625-0.019531 0.015625-0.03125 0-0.019531-0.007812-0.035156-0.015625-0.046875 0-0.019531-0.011719-0.03125-0.03125-0.03125z"/>
  </symbol>
  <symbol id="s" overflow="visible">
   <path d="m0.03125-0.29688h0.0625v0.29688h-0.0625z"/>
  </symbol>
  <symbol id="r" overflow="visible">
   <path d="m0.17188-0.29688v0.046875h-0.046875l-0.015625 0.015625v0.015625 0.015625h0.0625v0.046875h-0.0625v0.15625h-0.0625v-0.15625h-0.046875v-0.046875h0.046875v-0.015625c0-0.019531 0.0039062-0.035156 0.015625-0.046875 0.0078125-0.019531 0.03125-0.03125 0.0625-0.03125z"/>
  </symbol>
  <symbol id="e" overflow="visible">
   <path d="m0.125-0.17188c-0.011719 0-0.023438 0.007813-0.03125 0.015625-0.011719 0.011719-0.015625 0.03125-0.015625 0.0625 0 0.011719 0.0039062 0.023438 0.015625 0.03125 0.007812 0.011719 0.019531 0.015625 0.03125 0.015625 0.019531 0 0.03125-0.0039062 0.03125-0.015625 0.007812-0.0078125 0.015625-0.019531 0.015625-0.03125 0-0.03125-0.007813-0.050781-0.015625-0.0625 0-0.007812-0.011719-0.015625-0.03125-0.015625zm0-0.046875c0.039062 0 0.070312 0.011719 0.09375 0.03125 0.019531 0.023438 0.03125 0.054688 0.03125 0.09375 0 0.03125-0.011719 0.058594-0.03125 0.078125-0.023438 0.011719-0.054688 0.015625-0.09375 0.015625-0.03125 0-0.058594-0.0039062-0.078125-0.015625-0.023438-0.019531-0.03125-0.046875-0.03125-0.078125 0-0.039062 0.0078125-0.070312 0.03125-0.09375 0.019531-0.019531 0.046875-0.03125 0.078125-0.03125z"/>
  </symbol>
  <symbol id="q" overflow="visible">
   <path d="m0.21875-0.17188c0.007812-0.007813 0.019531-0.019531 0.03125-0.03125 0.007812-0.007813 0.023438-0.015625 0.046875-0.015625 0.019531 0 0.035156 0.011719 0.046875 0.03125 0.019531 0.011719 0.03125 0.03125 0.03125 0.0625v0.125h-0.078125v-0.10938-0.015625c0-0.007812-0.007813-0.015625-0.015625-0.015625 0-0.007813-0.007812-0.015625-0.015625-0.015625-0.011719 0-0.023437 0.007812-0.03125 0.015625v0.046875 0.09375h-0.0625v-0.10938c0-0.019531-0.007813-0.03125-0.015625-0.03125 0-0.007813-0.007812-0.015625-0.015625-0.015625-0.011719 0-0.023437 0.007812-0.03125 0.015625-0.011719 0.011719-0.015625 0.027344-0.015625 0.046875v0.09375h-0.0625v-0.20312h0.0625v0.03125c0.007812-0.019531 0.019531-0.03125 0.03125-0.03125 0.007812-0.007813 0.019531-0.015625 0.03125-0.015625 0.019531 0 0.035156 0.007812 0.046875 0.015625 0.007813 0.011719 0.015625 0.023437 0.015625 0.03125z"/>
  </symbol>
  <symbol id="p" overflow="visible">
   <path d="m0.03125-0.28125h0.078125l0.10938 0.1875v-0.1875h0.0625v0.28125h-0.078125l-0.10938-0.1875v0.1875h-0.0625z"/>
  </symbol>
  <symbol id="o" overflow="visible">
   <path d="m0.03125-0.078125v-0.125h0.0625v0.015625 0.046875 0.03125 0.046875c0.007812 0.011719 0.015625 0.015625 0.015625 0.015625h0.015625c0.007812 0 0.019531-0.0039062 0.03125-0.015625 0.007812-0.0078125 0.015625-0.023438 0.015625-0.046875v-0.09375h0.0625v0.20312h-0.0625v-0.03125c-0.011719 0.011719-0.023437 0.023438-0.03125 0.03125h-0.046875c-0.023438 0-0.039062-0.0039062-0.046875-0.015625-0.011719-0.019531-0.015625-0.039062-0.015625-0.0625z"/>
  </symbol>
  <symbol id="n" overflow="visible">
   <path d="m0.03125-0.28125h0.125c0.03125 0 0.054688 0.011719 0.078125 0.03125 0.019531 0.011719 0.03125 0.03125 0.03125 0.0625s-0.011719 0.058594-0.03125 0.078125c-0.023437 0.011719-0.046875 0.015625-0.078125 0.015625h-0.046875v0.09375h-0.078125zm0.078125 0.0625v0.078125h0.03125c0.019531 0 0.03125-0.003906 0.03125-0.015625 0.007813-0.007812 0.015625-0.019531 0.015625-0.03125 0-0.007812-0.007812-0.015625-0.015625-0.015625 0-0.007813-0.011719-0.015625-0.03125-0.015625z"/>
  </symbol>
  <symbol id="m" overflow="visible">
   <path d="m0.20312-0.20312v0.0625c-0.011719-0.007813-0.023437-0.015625-0.03125-0.015625-0.011719-0.007812-0.023437-0.015625-0.03125-0.015625-0.011719 0-0.027344 0.011719-0.046875 0.03125-0.011719 0.011719-0.015625 0.027344-0.015625 0.046875 0 0.011719 0.0039062 0.023438 0.015625 0.03125 0.019531 0.011719 0.035156 0.015625 0.046875 0.015625h0.03125c0.007813 0 0.019531-0.0039062 0.03125-0.015625v0.0625h-0.03125-0.03125c-0.042969 0-0.074219-0.0039062-0.09375-0.015625-0.023438-0.019531-0.03125-0.046875-0.03125-0.078125 0-0.039062 0.0078125-0.070312 0.03125-0.09375 0.019531-0.019531 0.050781-0.03125 0.09375-0.03125 0.007813 0 0.019531 0.007812 0.03125 0.015625h0.03125z"/>
  </symbol>
 </defs>
 <g>
  <path d="m499.85 530.78h-299.7v29.219h299.7z"/>
  <path d="m499.7 522.36c-2.1992-43.184-38.172-77.637-81.809-77.637h-135.84c-43.562 0-79.535 34.453-81.809 77.637h299.46z"/>
  <path d="m456.13 390.46h-212.27c0 24.211 10.699 45.84 38.25 45.84h135.77c27.547 0 38.25-21.629 38.25-45.84z"/>
  <path d="m460.84 382.04c13.203 0 12.902-19.883 0-19.883h-221.68c-13.203 0-12.902 19.883 0 19.883z"/>
  <path d="m291.75 195.34c-1.8203 49.938-12.066 114.52-31.875 158.38h180.24c-20.492-43.562-30.055-110.34-31.875-158.38h-116.49z"/>
  <path d="m349.96 0c-65.418 0-105.64 70.426-74.754 126.43 6.7539 12.293 16.469 22.691 28.156 30.355h93.27c11.688-7.6641 21.402-18.062 28.156-30.355 30.812-56.008-9.3359-126.43-74.828-126.43z"/>
  <path d="m273.39 186.92h153.22c-2.0508-12.371-12.824-21.703-25.574-21.703h-102.07c-12.75 0-23.527 9.3359-25.574 21.703z"/>
  <use x="200.152344" y="561.136719" xlink:href="#u"/>
  <use x="200.429688" y="561.136719" xlink:href="#d"/>
  <use x="200.617188" y="561.136719" xlink:href="#c"/>
  <use x="200.875" y="561.136719" xlink:href="#a"/>
  <use x="201.132812" y="561.136719" xlink:href="#b"/>
  <use x="201.3125" y="561.136719" xlink:href="#c"/>
  <use x="201.570312" y="561.136719" xlink:href="#l"/>
  <use x="201.976562" y="561.136719" xlink:href="#k"/>
  <use x="202.246094" y="561.136719" xlink:href="#j"/>
  <use x="202.625" y="561.136719" xlink:href="#b"/>
  <use x="202.808594" y="561.136719" xlink:href="#a"/>
  <use x="203.0625" y="561.136719" xlink:href="#g"/>
  <use x="203.191406" y="561.136719" xlink:href="#i"/>
  <use x="203.464844" y="561.136719" xlink:href="#t"/>
  <use x="203.59375" y="561.136719" xlink:href="#h"/>
  <use x="203.996094" y="561.136719" xlink:href="#f"/>
  <use x="204.265625" y="561.136719" xlink:href="#a"/>
  <use x="204.523438" y="561.136719" xlink:href="#s"/>
  <use x="204.652344" y="561.136719" xlink:href="#a"/>
  <use x="204.910156" y="561.136719" xlink:href="#f"/>
  <use x="205.179688" y="561.136719" xlink:href="#f"/>
  <use x="205.453125" y="561.136719" xlink:href="#a"/>
  <use x="200.152344" y="561.519531" xlink:href="#r"/>
  <use x="200.316406" y="561.519531" xlink:href="#d"/>
  <use x="200.503906" y="561.519531" xlink:href="#e"/>
  <use x="200.765625" y="561.519531" xlink:href="#q"/>
  <use x="201.292969" y="561.519531" xlink:href="#b"/>
  <use x="201.476563" y="561.519531" xlink:href="#i"/>
  <use x="201.746094" y="561.519531" xlink:href="#c"/>
  <use x="202.132812" y="561.519531" xlink:href="#p"/>
  <use x="202.453125" y="561.519531" xlink:href="#e"/>
  <use x="202.710938" y="561.519531" xlink:href="#o"/>
  <use x="202.984375" y="561.519531" xlink:href="#h"/>
  <use x="203.386719" y="561.519531" xlink:href="#n"/>
  <use x="203.664063" y="561.519531" xlink:href="#d"/>
  <use x="203.851562" y="561.519531" xlink:href="#e"/>
  <use x="204.109375" y="561.519531" xlink:href="#g"/>
  <use x="204.242188" y="561.519531" xlink:href="#c"/>
  <use x="204.5" y="561.519531" xlink:href="#m"/>
  <use x="204.722656" y="561.519531" xlink:href="#b"/>
 </g>
</svg>
